<?xml version="1.0" standalone="no"?>
<!DOCTYPE svg PUBLIC "-//W3C//DTD SVG 20010904//EN"
 "http://www.w3.org/TR/2001/REC-SVG-20010904/DTD/svg10.dtd">
<svg version="1.0" xmlns="http://www.w3.org/2000/svg"
 width="200.000000pt" height="200.000000pt" viewBox="0 0 200.000000 200.000000"
 preserveAspectRatio="xMidYMid meet">

<g transform="translate(0.000000,200.000000) scale(0.100000,-0.100000)"
fill="#000000" stroke="none">
<path d="M0 1000 l0 -1000 1000 0 1000 0 0 1000 0 1000 -1000 0 -1000 0 0
-1000z m1110 702 c50 -8 47 -12 -27 -36 -28 -10 -72 -33 -97 -52 -25 -19 -46
-32 -46 -28 0 13 53 64 66 64 7 0 16 5 20 12 12 19 -147 1 -229 -26 -103 -34
-182 -84 -258 -159 -78 -78 -131 -165 -166 -272 -21 -65 -26 -100 -27 -190 -1
-132 12 -191 69 -311 33 -67 61 -109 109 -158 l65 -67 48 7 c61 8 63 10 63 43
0 34 23 56 75 70 52 14 77 13 44 -2 -36 -16 -59 -37 -80 -71 -16 -26 -16 -32
-3 -69 8 -23 13 -46 10 -53 -10 -26 132 -64 245 -64 65 0 79 3 95 21 10 12 43
39 72 61 66 49 121 108 122 129 0 16 -82 59 -114 59 -8 0 -18 5 -21 11 -8 12
63 4 130 -15 32 -9 45 -20 64 -57 14 -25 22 -53 18 -61 -3 -9 -43 -30 -89 -48
-90 -34 -148 -66 -148 -81 0 -15 17 -10 56 16 36 25 71 34 60 16 -13 -21 36 4
57 29 28 32 63 53 77 45 15 -9 78 43 137 115 208 251 203 630 -12 868 -78 86
-87 89 -146 62 -47 -23 -56 -40 -19 -40 10 0 44 -15 75 -32 50 -29 54 -34 33
-38 -20 -5 -15 -10 40 -40 34 -19 62 -38 62 -41 0 -4 -18 -10 -40 -14 -50 -8
-56 -18 -32 -53 22 -32 55 -102 50 -107 -2 -2 -21 7 -43 21 -25 15 -33 24 -22
24 16 0 15 4 -8 43 -30 53 -31 64 -5 72 31 10 24 20 -35 51 -35 18 -51 32 -45
38 18 18 11 24 -42 42 -29 9 -55 18 -57 20 -2 1 13 17 33 34 20 18 36 36 36
40 0 4 -37 8 -82 9 -46 1 -103 4 -128 8 l-45 7 55 17 55 17 -43 7 c-23 4 -45
11 -47 15 -3 5 9 20 26 34 35 30 95 63 85 48 -3 -5 22 -20 55 -32 206 -78 371
-269 424 -492 19 -81 19 -233 0 -323 -40 -186 -173 -362 -349 -460 -103 -57
-177 -76 -311 -82 -141 -6 -206 7 -330 67 -233 112 -376 330 -392 594 -19 314
181 615 473 710 103 34 228 44 334 28z m-224 -84 c-38 -90 -49 -106 -95 -129
-65 -33 -68 -34 -52 -16 7 10 10 17 5 17 -5 0 25 36 66 80 41 44 78 80 83 80
4 0 1 -15 -7 -32z m-161 -85 c-8 -56 -54 -109 -134 -155 l-54 -31 29 -12 c27
-11 28 -12 9 -22 -11 -5 -45 -11 -75 -12 -51 -2 -54 -1 -35 13 20 15 20 15 -5
16 -22 0 -18 5 25 32 28 17 69 41 93 54 23 12 38 25 33 29 -8 4 105 134 118
135 2 0 0 -21 -4 -47z m-180 -308 c-15 -24 -24 -49 -20 -54 6 -11 -23 -76 -31
-68 -5 4 24 145 33 160 2 4 13 7 24 7 19 0 19 -2 -6 -45z m526 -104 c54 -36
79 -56 79 -64 0 -7 -68 -47 -80 -47 -5 0 -21 23 -36 51 -20 40 -22 50 -10 46
21 -8 20 2 -1 25 -24 27 -3 22 48 -11z m-521 0 c0 -6 -4 -13 -10 -16 -5 -3
-10 1 -10 9 0 9 5 16 10 16 6 0 10 -4 10 -9z m200 -38 c0 -7 -4 -13 -9 -13
-10 0 -21 25 -21 48 1 15 3 14 15 -2 8 -11 15 -26 15 -33z m123 -42 l52 -53
-61 30 c-64 32 -74 45 -74 90 1 26 1 26 15 7 8 -11 39 -44 68 -74z m575 42
c-10 -2 -26 -2 -35 0 -10 3 -2 5 17 5 19 0 27 -2 18 -5z m-911 -43 c-8 -21
-18 -30 -34 -30 -30 0 -29 6 5 35 36 32 43 31 29 -5z m738 -20 c4 -16 11 -30
16 -30 6 0 8 -15 4 -35 -3 -19 -7 -51 -10 -70 -4 -21 -2 -35 5 -35 5 0 10 8
10 18 1 9 7 28 14 41 12 22 14 22 23 7 8 -14 10 -9 9 23 -1 59 18 55 22 -4 3
-60 -25 -111 -75 -135 -19 -9 -39 -31 -52 -58 -22 -45 -72 -82 -188 -141 l-62
-31 -82 42 c-98 50 -175 117 -184 158 -4 17 -11 27 -16 24 -15 -9 -56 23 -85
65 -19 30 -25 49 -22 82 3 47 24 64 33 26 10 -38 67 -147 59 -112 -4 17 -7 44
-9 60 -1 17 -5 45 -9 63 -11 46 0 40 29 -17 26 -53 45 -72 45 -47 0 9 9 16 20
16 13 0 20 -7 20 -20 0 -28 45 -56 65 -40 8 7 15 19 15 27 0 7 7 16 15 19 8 4
15 17 15 29 0 31 33 42 65 21 33 -22 38 -20 21 7 -8 12 -17 33 -21 46 -6 20 2
16 54 -25 33 -27 61 -55 61 -61 0 -7 5 -13 10 -13 6 0 16 -11 22 -25 16 -35
58 -31 76 8 15 31 38 36 45 10 3 -15 6 -13 17 9 10 22 10 30 0 43 -13 16 -6
85 10 85 4 0 11 -13 15 -30z m160 -1 c9 -17 15 -33 12 -35 -2 -2 -21 5 -43 17
-22 11 -29 18 -16 15 17 -3 22 0 22 15 0 27 7 24 25 -12z m-599 -10 c31 -12
54 -22 52 -24 -2 -2 -29 2 -60 10 -48 11 -60 11 -75 -1 -26 -20 -30 -17 -25
17 5 35 10 35 108 -2z m392 3 c3 -21 2 -22 -17 -10 -16 10 -29 9 -72 -5 -29
-9 -55 -14 -58 -12 -7 8 89 46 99 40 6 -3 10 -1 10 5 0 22 35 5 38 -18z m-638
-47 c0 -9 -9 -15 -21 -15 -18 0 -19 2 -9 15 7 8 16 15 21 15 5 0 9 -7 9 -15z
m200 -4 c0 -6 -4 -13 -10 -16 -5 -3 -10 1 -10 9 0 9 5 16 10 16 6 0 10 -4 10
-9z m330 0 c0 -12 -20 -25 -27 -18 -7 7 6 27 18 27 5 0 9 -4 9 -9z m280 -1 c0
-5 -2 -10 -4 -10 -3 0 -8 5 -11 10 -3 6 -1 10 4 10 6 0 11 -4 11 -10z m-479
-395 c32 -25 61 -45 65 -45 4 0 29 14 56 30 57 35 58 35 59 13 1 -12 3 -10 8
6 11 40 31 38 31 -3 0 -23 5 -39 15 -42 27 -11 17 -55 -22 -98 -51 -57 -69
-65 -140 -66 -89 0 -141 23 -163 73 -19 41 -16 75 6 84 9 3 14 21 14 49 0 24
3 44 7 44 4 0 33 -20 64 -45z m320 -15 c28 -16 23 -29 -11 -27 -21 1 -30 7
-30 20 0 19 13 22 41 7z m-451 -29 c0 -5 -7 -12 -16 -15 -24 -9 -28 -7 -14 9
14 17 30 20 30 6z"/>
<path d="M1170 1642 c8 -5 26 -13 40 -16 17 -5 20 -4 10 2 -8 5 -26 13 -40 16
-17 5 -20 4 -10 -2z"/>
<path d="M1325 1570 c3 -5 14 -10 23 -10 15 0 15 2 2 10 -20 13 -33 13 -25 0z"/>
<path d="M980 810 c0 -5 5 -10 10 -10 6 0 10 5 10 10 0 6 -4 10 -10 10 -5 0
-10 -4 -10 -10z"/>
<path d="M920 515 c0 -5 5 -17 10 -25 5 -8 10 -10 10 -5 0 6 -5 17 -10 25 -5
8 -10 11 -10 5z"/>
</g>
</svg>
